<svg width="17" height="17" viewBox="0 0 17 17" fill="none" xmlns="http://www.w3.org/2000/svg">
<path d="M12.6667 0.524902H4.33334C1.83334 0.524902 0.166672 2.19157 0.166672 4.69157V9.69157C0.166672 12.1916 1.83334 13.8582 4.33334 13.8582V15.6332C4.33334 16.2999 5.07501 16.6999 5.62501 16.3249L9.33334 13.8582H12.6667C15.1667 13.8582 16.8333 12.1916 16.8333 9.69157V4.69157C16.8333 2.19157 15.1667 0.524902 12.6667 0.524902ZM8.50001 10.6666C8.15001 10.6666 7.87501 10.3832 7.87501 10.0416C7.87501 9.6999 8.15001 9.41657 8.50001 9.41657C8.85001 9.41657 9.12501 9.6999 9.12501 10.0416C9.12501 10.3832 8.85001 10.6666 8.50001 10.6666ZM9.55001 7.20824C9.22501 7.4249 9.12501 7.56657 9.12501 7.7999V7.9749C9.12501 8.31657 8.84167 8.5999 8.50001 8.5999C8.15834 8.5999 7.87501 8.31657 7.87501 7.9749V7.7999C7.87501 6.83324 8.58334 6.35824 8.85001 6.1749C9.15834 5.96657 9.25834 5.8249 9.25834 5.60824C9.25834 5.19157 8.91667 4.8499 8.50001 4.8499C8.08334 4.8499 7.74167 5.19157 7.74167 5.60824C7.74167 5.9499 7.45834 6.23324 7.11667 6.23324C6.77501 6.23324 6.49167 5.9499 6.49167 5.60824C6.49167 4.4999 7.39167 3.5999 8.50001 3.5999C9.60834 3.5999 10.5083 4.4999 10.5083 5.60824C10.5083 6.55824 9.80834 7.03324 9.55001 7.20824Z" fill="#353945"/>
</svg>
