<svg width="16" height="17" viewBox="0 0 16 17" fill="none" xmlns="http://www.w3.org/2000/svg">
<g clip-path="url(#clip0_5282_3457)">
<path d="M2.66667 8.5H13.3333C13.5101 8.5 13.6797 8.57024 13.8047 8.69526C13.9298 8.82029 14 8.98986 14 9.16667V11.1667C14 11.8739 13.719 12.5522 13.219 13.0523C12.7189 13.5524 12.0406 13.8333 11.3333 13.8333H4.66667C3.95942 13.8333 3.28115 13.5524 2.78105 13.0523C2.28095 12.5522 2 11.8739 2 11.1667V9.16667C2 8.98986 2.07024 8.82029 2.19526 8.69526C2.32029 8.57024 2.48986 8.5 2.66667 8.5V8.5Z" stroke="#777E91" stroke-width="1.2" stroke-linecap="round" stroke-linejoin="round"/>
<path d="M4 8.5V3.83333C4 3.47971 4.14048 3.14057 4.39052 2.89052C4.64057 2.64048 4.97971 2.5 5.33333 2.5H7.33333V4" stroke="#777E91" stroke-width="1.2" stroke-linecap="round" stroke-linejoin="round"/>
<path d="M2.6665 14.5L3.33317 13.5" stroke="#777E91" stroke-width="1.2" stroke-linecap="round" stroke-linejoin="round"/>
<path d="M13.3332 14.5L12.6665 13.5" stroke="#777E91" stroke-width="1.2" stroke-linecap="round" stroke-linejoin="round"/>
</g>
<defs>
<clipPath id="clip0_5282_3457">
<rect width="16" height="16" fill="white" transform="translate(0 0.5)"/>
</clipPath>
</defs>
</svg>
