<svg width="16" height="17" viewBox="0 0 16 17" fill="none" xmlns="http://www.w3.org/2000/svg">
<path d="M12 8H3V4.75C3.00099 4.41878 3.133 4.10142 3.36721 3.86721C3.60142 3.633 3.91878 3.50099 4.25 3.5H11.75C12.0812 3.50099 12.3986 3.633 12.6328 3.86721C12.867 4.10142 12.999 4.41878 13 4.75V8H12Z" stroke="#777E91" stroke-width="1.2" stroke-linecap="round" stroke-linejoin="round"/>
<path d="M1.5 13.5V10C1.50157 9.47005 1.71278 8.96225 2.08752 8.58752C2.46225 8.21278 2.97005 8.00157 3.5 8H12.5C13.03 8.00157 13.5377 8.21278 13.9125 8.58752C14.2872 8.96225 14.4984 9.47005 14.5 10V13.5" stroke="#777E91" stroke-width="1.2" stroke-linecap="round" stroke-linejoin="round"/>
<path d="M1.5 13.5V13.25C1.50058 13.0513 1.57978 12.8608 1.72031 12.7203C1.86083 12.5798 2.05127 12.5006 2.25 12.5H13.75C13.9487 12.5006 14.1392 12.5798 14.2797 12.7203C14.4202 12.8608 14.4994 13.0513 14.5 13.25V13.5" stroke="#777E91" stroke-width="1.2" stroke-linecap="round" stroke-linejoin="round"/>
</svg>
