<svg width="20" height="20" viewBox="0 0 20 20" fill="none" xmlns="http://www.w3.org/2000/svg">
<path fill-rule="evenodd" clip-rule="evenodd" d="M5.29916 2.94874C2.94873 2.94874 2.94873 3.12652 2.94873 5.29917V5.32053C2.94873 6.26669 2.94873 6.95045 3.18035 7.23934C3.40685 7.51968 4.0795 7.64959 5.29916 7.64959C6.51882 7.64959 7.19147 7.51882 7.41796 7.23848C7.64959 6.95045 7.64958 6.26669 7.64958 5.31968C7.64958 3.12652 7.64958 2.94874 5.29916 2.94874ZM5.29917 8.93164C3.85814 8.93164 2.77694 8.78036 2.18293 8.04276C1.66669 7.40259 1.66669 6.52908 1.66669 5.32053L2.30771 5.29917H1.66669C1.66669 2.84617 1.82139 1.66669 5.29917 1.66669C8.77694 1.66669 8.93164 2.84617 8.93164 5.29917C8.93164 6.52823 8.93164 7.40259 8.41541 8.04276C7.82139 8.78036 6.74019 8.93164 5.29917 8.93164Z" fill="#141416"/>
<path fill-rule="evenodd" clip-rule="evenodd" d="M14.7009 2.94874C12.3505 2.94874 12.3505 3.12652 12.3505 5.29917V5.32053C12.3505 6.26669 12.3505 6.95045 12.5821 7.23934C12.8086 7.51968 13.4813 7.64959 14.7009 7.64959C15.9206 7.64959 16.5932 7.51882 16.8197 7.23848C17.0513 6.95045 17.0513 6.26669 17.0513 5.31968C17.0513 3.12652 17.0513 2.94874 14.7009 2.94874ZM14.7009 8.93164C13.2599 8.93164 12.1787 8.78036 11.5847 8.04276C11.0684 7.40259 11.0684 6.52908 11.0684 5.32053L11.7094 5.29917H11.0684C11.0684 2.84617 11.2231 1.66669 14.7009 1.66669C18.1787 1.66669 18.3334 2.84617 18.3334 5.29917C18.3334 6.52823 18.3334 7.40259 17.8171 8.04276C17.2231 8.78036 16.1419 8.93164 14.7009 8.93164Z" fill="#141416"/>
<path fill-rule="evenodd" clip-rule="evenodd" d="M5.29916 12.3505C2.94873 12.3505 2.94873 12.5283 2.94873 14.7009V14.7223C2.94873 15.6684 2.94873 16.3522 3.18035 16.6411C3.40685 16.9214 4.0795 17.0513 5.29916 17.0513C6.51882 17.0513 7.19147 16.9206 7.41796 16.6402C7.64959 16.3522 7.64958 15.6684 7.64958 14.7214C7.64958 12.5283 7.64958 12.3505 5.29916 12.3505ZM5.29917 18.3334C3.85814 18.3334 2.77694 18.1821 2.18293 17.4445C1.66669 16.8043 1.66669 15.9308 1.66669 14.7223L2.30771 14.7009H1.66669C1.66669 12.2479 1.82139 11.0684 5.29917 11.0684C8.77694 11.0684 8.93164 12.2479 8.93164 14.7009C8.93164 15.93 8.93164 16.8043 8.41541 17.4445C7.82139 18.1821 6.74019 18.3334 5.29917 18.3334Z" fill="#141416"/>
<path fill-rule="evenodd" clip-rule="evenodd" d="M14.7009 12.3505C12.3504 12.3505 12.3504 12.5283 12.3504 14.7009V14.7223C12.3504 15.6684 12.3504 16.3522 12.5821 16.6411C12.8085 16.9214 13.4812 17.0513 14.7009 17.0513C15.9205 17.0513 16.5932 16.9206 16.8197 16.6402C17.0513 16.3522 17.0513 15.6684 17.0513 14.7214C17.0513 12.5283 17.0513 12.3505 14.7009 12.3505ZM14.7008 18.3334C13.2598 18.3334 12.1786 18.1821 11.5846 17.4445C11.0684 16.8043 11.0684 15.9308 11.0684 14.7223L11.7094 14.7009H11.0684C11.0684 12.2479 11.2231 11.0684 14.7008 11.0684C18.1786 11.0684 18.3333 12.2479 18.3333 14.7009C18.3333 15.93 18.3333 16.8043 17.8171 17.4445C17.2231 18.1821 16.1419 18.3334 14.7008 18.3334Z" fill="#141416"/>
</svg>
