<svg width="18" height="17" viewBox="0 0 18 17" fill="none" xmlns="http://www.w3.org/2000/svg">
<path fill-rule="evenodd" clip-rule="evenodd" d="M0.666664 8.5126C0.666664 4.12268 4.175 0.166748 9.01666 0.166748C13.75 0.166748 17.3333 4.04757 17.3333 8.48756C17.3333 13.637 13.1333 16.8334 9 16.8334C7.63333 16.8334 6.11666 16.4662 4.9 15.7485C4.475 15.4897 4.11666 15.2978 3.65833 15.448L1.975 15.9488C1.55 16.0823 1.16666 15.7485 1.29166 15.2978L1.85 13.4283C1.94166 13.1696 1.925 12.8942 1.79166 12.6772C1.075 11.3585 0.666664 9.9147 0.666664 8.5126ZM7.91666 8.5126C7.91666 9.10515 8.39166 9.58087 8.98333 9.58921C9.575 9.58921 10.05 9.10515 10.05 8.52095C10.05 7.92839 9.575 7.45268 8.98333 7.45268C8.4 7.44433 7.91666 7.92839 7.91666 8.5126ZM11.7583 8.52095C11.7583 9.10516 12.2333 9.58921 12.825 9.58921C13.4167 9.58921 13.8917 9.10516 13.8917 8.52095C13.8917 7.92839 13.4167 7.45268 12.825 7.45268C12.2333 7.45268 11.7583 7.92839 11.7583 8.52095ZM5.14166 9.58922C4.55833 9.58922 4.075 9.10516 4.075 8.52095C4.075 7.92839 4.55 7.45268 5.14166 7.45268C5.73333 7.45268 6.20833 7.92839 6.20833 8.52095C6.20833 9.10516 5.73333 9.58087 5.14166 9.58922Z" fill="#353945"/>
</svg>
