<svg width="20" height="20" viewBox="0 0 20 20" fill="none" xmlns="http://www.w3.org/2000/svg">
<path d="M18.175 3.28333C17.0834 6.00833 14.5917 9.56666 12.2167 11.8917C11.875 9.74166 10.1584 8.05833 7.9917 7.75833C10.325 5.37499 13.9084 2.84999 16.6417 1.74999C17.125 1.56666 17.6084 1.70833 17.9084 2.00833C18.225 2.32499 18.375 2.79999 18.175 3.28333Z" fill="#777E91"/>
<path d="M11.4834 12.575C11.3168 12.7166 11.1501 12.8583 10.9834 12.9916L9.49176 14.1833C9.49176 14.1583 9.48343 14.125 9.48343 14.0916C9.36676 13.2 8.9501 12.375 8.2751 11.7C7.59176 11.0166 6.74176 10.6 5.80843 10.4833C5.78343 10.4833 5.7501 10.475 5.7251 10.475L6.93343 8.94997C7.0501 8.79997 7.1751 8.6583 7.30843 8.5083L7.8751 8.5833C9.66676 8.8333 11.1084 10.2416 11.3918 12.025L11.4834 12.575Z" fill="#777E91"/>
<path d="M8.69155 14.6834C8.69155 15.6001 8.34155 16.4751 7.67489 17.1334C7.16655 17.6501 6.48322 18.0001 5.64989 18.1001L3.60822 18.3251C2.49155 18.4501 1.53322 17.4917 1.65822 16.3667L1.88322 14.3167C2.08322 12.4917 3.60822 11.3251 5.22489 11.2917C5.38322 11.2834 5.55822 11.2917 5.72489 11.3084C6.43322 11.4001 7.11655 11.7251 7.69155 12.2917C8.24989 12.8501 8.56655 13.5084 8.65822 14.2001C8.67489 14.3667 8.69155 14.5251 8.69155 14.6834Z" fill="#777E91"/>
</svg>
