<svg width="25" height="24" viewBox="0 0 25 24" fill="none" xmlns="http://www.w3.org/2000/svg">
<g id="Edit - Light 24px">
<g id="Edit">
<path id="Fill 1" fill-rule="evenodd" clip-rule="evenodd" d="M20.8081 21H14.1132C13.731 21 13.4209 20.6807 13.4209 20.2872C13.4209 19.8937 13.731 19.5744 14.1132 19.5744H20.8081C21.1902 19.5744 21.5004 19.8937 21.5004 20.2872C21.5004 20.6807 21.1902 21 20.8081 21Z" fill="#23262F"/>
<g id="Group 5">
<mask id="mask0_4041_10248" style="mask-type:luminance" maskUnits="userSpaceOnUse" x="3" y="3" width="17" height="18">
<path id="Clip 4" fill-rule="evenodd" clip-rule="evenodd" d="M3.5 3H19.3586V21H3.5V3Z" fill="white"/>
</mask>
<g mask="url(#mask0_4041_10248)">
<path id="Fill 3" fill-rule="evenodd" clip-rule="evenodd" d="M13.7554 4.91662L5.06483 16.1075C4.90699 16.3109 4.84883 16.5732 4.90699 16.825L5.53559 19.5669L8.34075 19.5308C8.60751 19.528 8.85397 19.4054 9.01735 19.1963C11.9868 15.3709 17.6479 8.07763 17.8085 7.86379C17.9599 7.61099 18.019 7.25364 17.9396 6.9096C17.8584 6.557 17.6451 6.25763 17.3378 6.0666C17.2722 6.02003 15.7169 4.77691 15.6689 4.73795C15.0837 4.25515 14.2298 4.33878 13.7554 4.91662ZM4.98914 21.0001C4.66884 21.0001 4.39008 20.7739 4.31531 20.4517L3.55933 17.1529C3.40333 16.4696 3.55841 15.7644 3.98393 15.217L12.6791 4.01943C12.6828 4.01563 12.6856 4.01088 12.6893 4.00708C13.6428 2.83334 15.367 2.66037 16.5301 3.62122C16.5762 3.65828 18.1205 4.89379 18.1205 4.89379C18.6817 5.23783 19.1202 5.85274 19.2863 6.58074C19.4516 7.30114 19.3316 8.04434 18.9466 8.67255C18.918 8.71912 18.8931 8.75904 10.0982 20.0877C9.67456 20.6313 9.0395 20.9478 8.35737 20.9564L4.99837 21.0001H4.98914Z" fill="#23262F"/>
</g>
</g>
<path id="Fill 6" fill-rule="evenodd" clip-rule="evenodd" d="M16.629 11.2538C16.4813 11.2538 16.3336 11.2054 16.2072 11.1065L11.1747 7.12628C10.8719 6.88679 10.8147 6.4401 11.0473 6.12647C11.2808 5.81474 11.7147 5.75677 12.0184 5.99627L17.0518 9.97556C17.3545 10.2151 17.4118 10.6627 17.1782 10.9754C17.0425 11.1578 16.8367 11.2538 16.629 11.2538Z" fill="#23262F"/>
</g>
</g>
</svg>
