<svg width="13" height="12" viewBox="0 0 13 12" fill="none" xmlns="http://www.w3.org/2000/svg">
<path fill-rule="evenodd" clip-rule="evenodd" d="M4.9382 10.014L9.33139 4.33272C9.57015 4.02635 9.65504 3.67215 9.57546 3.31149C9.50648 2.98363 9.30486 2.67189 9.00243 2.43539L8.26493 1.84953C7.62293 1.33892 6.82706 1.39267 6.37076 1.97853L5.87732 2.61867C5.81365 2.69876 5.82957 2.81701 5.90916 2.88151C5.90916 2.88151 7.15602 3.88123 7.18255 3.90273C7.26744 3.98335 7.33111 4.09085 7.34703 4.21985C7.37356 4.47247 7.19846 4.70896 6.93848 4.74121C6.81645 4.75733 6.69972 4.71971 6.61483 4.64984L5.3043 3.60711C5.24063 3.55928 5.14512 3.56949 5.09207 3.63399L1.97757 7.66514C1.77595 7.91775 1.70697 8.24562 1.77595 8.56274L2.17388 10.2881C2.19511 10.3794 2.27469 10.4439 2.3702 10.4439L4.12111 10.4224C4.43945 10.4171 4.73658 10.2719 4.9382 10.014ZM7.38984 9.47663H10.2449C10.5234 9.47663 10.75 9.70613 10.75 9.98831C10.75 10.271 10.5234 10.5 10.2449 10.5H7.38984C7.11129 10.5 6.88473 10.271 6.88473 9.98831C6.88473 9.70613 7.11129 9.47663 7.38984 9.47663Z" fill="#F8F8F9"/>
</svg>
