<svg width="18" height="18" viewBox="0 0 18 18" fill="none" xmlns="http://www.w3.org/2000/svg">
<path fill-rule="evenodd" clip-rule="evenodd" d="M8.99976 13.6916C8.65476 13.6916 8.37476 13.4079 8.37476 13.0583V10.9163C8.37476 10.5668 8.65476 10.2831 8.99976 10.2831C9.34476 10.2831 9.62476 10.5668 9.62476 10.9163V13.0583C9.62476 13.4079 9.34476 13.6916 8.99976 13.6916Z" fill="#2FA2B9"/>
<mask id="mask0_4041_8815" style="mask-type:luminance" maskUnits="userSpaceOnUse" x="0" y="2" width="18" height="10">
<path fill-rule="evenodd" clip-rule="evenodd" d="M0.666748 2.84497H17.3334V11.5506H0.666748V2.84497Z" fill="white"/>
</mask>
<g mask="url(#mask0_4041_8815)">
<path fill-rule="evenodd" clip-rule="evenodd" d="M1.91675 8.59726C3.89776 9.68727 6.3957 10.2842 8.99536 10.2842C11.6 10.2842 14.1005 9.68727 16.0823 8.59726V6.06264C16.0823 4.98615 15.2227 4.11145 14.1647 4.11145H3.84273C2.78052 4.11145 1.91675 4.98277 1.91675 6.0542V8.59726ZM8.996 11.5506C6.04032 11.5506 3.19137 10.8262 0.976072 9.51248C0.784308 9.39934 0.666748 9.19164 0.666748 8.96621V6.05419C0.666748 4.28452 2.09164 2.84497 3.84337 2.84497H14.1653C15.9129 2.84497 17.3336 4.2879 17.3336 6.06263V8.96621C17.3336 9.19164 17.2152 9.39934 17.0243 9.51248C14.809 10.8262 11.9575 11.5506 8.996 11.5506Z" fill="#2FA2B9"/>
</g>
<mask id="mask1_4041_8815" style="mask-type:luminance" maskUnits="userSpaceOnUse" x="5" y="0" width="8" height="5">
<path fill-rule="evenodd" clip-rule="evenodd" d="M5.45654 0.66687H12.5435V4.10819H5.45654V0.66687Z" fill="white"/>
</mask>
<g mask="url(#mask1_4041_8815)">
<path fill-rule="evenodd" clip-rule="evenodd" d="M11.9182 4.10815C11.573 4.10815 11.2929 3.82447 11.2929 3.47492V3.1659C11.2929 2.48623 10.7467 1.93321 10.0756 1.93321H7.92447C7.25329 1.93321 6.70718 2.48623 6.70718 3.1659V3.47492C6.70718 3.82447 6.42704 4.10815 6.08186 4.10815C5.73669 4.10815 5.45654 3.82447 5.45654 3.47492V3.1659C5.45654 1.78799 6.56377 0.666748 7.92447 0.666748H10.0756C11.4363 0.666748 12.5435 1.78799 12.5435 3.1659V3.47492C12.5435 3.82447 12.2633 4.10815 11.9182 4.10815Z" fill="#2FA2B9"/>
</g>
<path fill-rule="evenodd" clip-rule="evenodd" d="M13.8356 17.3335H4.164C2.43395 17.3335 0.977375 15.9649 0.846475 14.2171L0.688061 12.0988C0.662214 11.7501 0.920679 11.4453 1.26502 11.4191C1.61103 11.4064 1.90952 11.6538 1.9362 12.0034L2.09378 14.1209C2.17549 15.2117 3.08428 16.067 4.164 16.067H13.8356C14.9153 16.067 15.8249 15.2117 15.9058 14.1209L16.0642 12.0034C16.0909 11.6538 16.3969 11.4056 16.7354 11.4191C17.0798 11.4453 17.3374 11.7501 17.3115 12.0988L17.1531 14.2171C17.0222 15.9649 15.5656 17.3335 13.8356 17.3335Z" fill="#2FA2B9"/>
</svg>
