<svg width="24" height="20" viewBox="0 0 24 20" fill="none" xmlns="http://www.w3.org/2000/svg">
<g clip-path="url(#clip0_4040_10362)">
<path d="M13.5771 9.85429L15.9168 12.5234L19.0633 14.5299L19.6106 9.87114L19.0633 5.3175L15.8566 7.0801L13.5771 9.85429Z" fill="#00832D"/>
<path d="M0 14.0962V18.0662C0 18.9726 0.737183 19.7085 1.64565 19.7085H5.62348L6.44718 16.709L5.62348 14.0962L2.89442 13.2742L0 14.0962Z" fill="#0066DA"/>
<path d="M5.62348 0L0 5.61231L2.8946 6.43245L5.62348 5.61231L6.43221 3.03512L5.62348 0Z" fill="#E94235"/>
<path d="M0 14.0982H5.62348V5.6123H0V14.0982Z" fill="#2684FC"/>
<path d="M22.6555 2.37631L19.0632 5.31762V14.5298L22.6705 17.4826C23.2104 17.9047 24.0004 17.5199 24.0004 16.835V3.01075C24.0004 2.31811 23.1916 1.93523 22.6555 2.37631Z" fill="#00AC47"/>
<path d="M13.5771 9.85425V14.0962H5.62354V19.7085H17.4176C18.3261 19.7085 19.0633 18.9726 19.0633 18.0662V14.5298L13.5771 9.85425Z" fill="#00AC47"/>
<path d="M17.4176 0H5.62354V5.61231H13.5771V9.85428L19.0633 5.3175V1.64238C19.0633 0.735718 18.3261 0 17.4176 0Z" fill="#FFBA00"/>
</g>
<defs>
<clipPath id="clip0_4040_10362">
<rect width="24" height="19.7419" fill="white"/>
</clipPath>
</defs>
</svg>
