<svg width="16" height="16" viewBox="0 0 16 16" fill="none" xmlns="http://www.w3.org/2000/svg">
<path d="M13.8334 5.2583L9.38923 1.80164C8.99922 1.49823 8.51919 1.3335 8.02506 1.3335C7.53093 1.3335 7.05091 1.49823 6.6609 1.80164L2.2159 5.2583C1.94877 5.46604 1.73264 5.73208 1.58403 6.03609C1.43541 6.34011 1.35824 6.67407 1.3584 7.01247V13.0125C1.3584 13.4545 1.53399 13.8784 1.84655 14.191C2.15911 14.5035 2.58304 14.6791 3.02507 14.6791H13.0251C13.4671 14.6791 13.891 14.5035 14.2036 14.191C14.5161 13.8784 14.6917 13.4545 14.6917 13.0125V7.01247C14.6917 6.32664 14.3751 5.67914 13.8334 5.2583Z" stroke="#2FA2B9" stroke-width="1.2" stroke-linecap="round" stroke-linejoin="round"/>
<path d="M11.3334 10.5C9.49175 11.6108 6.50675 11.6108 4.66675 10.5" stroke="#2FA2B9" stroke-width="1.2" stroke-linecap="round" stroke-linejoin="round"/>
</svg>
