<svg width="20" height="20" viewBox="0 0 20 20" fill="none" xmlns="http://www.w3.org/2000/svg">
<path fill-rule="evenodd" clip-rule="evenodd" d="M11.3598 13.2911C12.4757 13.2911 13.384 14.196 13.384 15.3083V18.1691C13.384 18.4081 13.5749 18.5996 13.8196 18.6052H15.5861C16.9783 18.6052 18.1099 17.4836 18.1099 16.1053V7.99188C18.1034 7.51758 17.8782 7.07117 17.4917 6.77449L11.3811 1.88447C10.5608 1.23253 9.41341 1.23253 8.59037 1.88633L2.52144 6.77263C2.12011 7.07861 1.89489 7.52502 1.89026 8.0077V16.1053C1.89026 17.4836 3.02193 18.6052 4.41404 18.6052H6.19728C6.44845 18.6052 6.65235 18.4053 6.65235 18.1598C6.65235 18.1058 6.65884 18.0519 6.66996 18.0007V15.3083C6.66996 14.2025 7.5727 13.2986 8.68028 13.2911H11.3598ZM15.5862 20.0002H13.8029C12.7815 19.9761 11.9937 19.1716 11.9937 18.169V15.3083C11.9937 14.9651 11.7092 14.6861 11.3598 14.6861H8.68491C8.34291 14.688 8.06022 14.9679 8.06022 15.3083V18.1597C8.06022 18.2295 8.05095 18.2964 8.03149 18.3597C7.93139 19.2804 7.14729 20.0002 6.19728 20.0002H4.41404C2.25543 20.0002 0.5 18.2527 0.5 16.1053V8.00116C0.509268 7.07673 0.93376 6.23041 1.66689 5.67333L7.72378 0.795397C9.0575 -0.264822 10.9158 -0.264822 12.2468 0.793536L18.3472 5.67612C19.0636 6.2239 19.4881 7.06836 19.5002 7.98163V16.1053C19.5002 18.2527 17.7448 20.0002 15.5862 20.0002Z" fill="black"/>
</svg>
