<svg width="21" height="20" viewBox="0 0 21 20" fill="none" xmlns="http://www.w3.org/2000/svg">
<path d="M17.6333 6.97504L11.8583 2.35837C10.9667 1.6417 9.525 1.6417 8.64166 2.35004L2.86666 6.97504C2.21666 7.4917 1.8 8.58337 1.94166 9.40004L3.05 16.0334C3.25 17.2167 4.38333 18.175 5.58333 18.175H14.9167C16.1083 18.175 17.25 17.2084 17.45 16.0334L18.5583 9.40004C18.6917 8.58337 18.275 7.4917 17.6333 6.97504ZM10.25 12.9167C9.1 12.9167 8.16666 11.9834 8.16666 10.8334C8.16666 9.68337 9.1 8.75004 10.25 8.75004C11.4 8.75004 12.3333 9.68337 12.3333 10.8334C12.3333 11.9834 11.4 12.9167 10.25 12.9167Z" fill="#23262F"/>
</svg>
