<svg width="18" height="19" viewBox="0 0 18 19" fill="none" xmlns="http://www.w3.org/2000/svg">
<path d="M17.3333 8.87508H15.6333C15.3333 5.70008 12.8 3.15841 9.62496 2.86675V1.16675C9.62496 0.825081 9.34163 0.541748 8.99996 0.541748C8.65829 0.541748 8.37496 0.825081 8.37496 1.16675V2.86675C5.19996 3.16675 2.65829 5.70008 2.36663 8.87508H0.666626C0.324959 8.87508 0.041626 9.15841 0.041626 9.50008C0.041626 9.84175 0.324959 10.1251 0.666626 10.1251H2.36663C2.66663 13.3001 5.19996 15.8417 8.37496 16.1334V17.8334C8.37496 18.1751 8.65829 18.4584 8.99996 18.4584C9.34163 18.4584 9.62496 18.1751 9.62496 17.8334V16.1334C12.8 15.8334 15.3416 13.3001 15.6333 10.1251H17.3333C17.675 10.1251 17.9583 9.84175 17.9583 9.50008C17.9583 9.15841 17.675 8.87508 17.3333 8.87508ZM8.99996 12.1001C7.56663 12.1001 6.39996 10.9334 6.39996 9.50008C6.39996 8.06675 7.56663 6.90008 8.99996 6.90008C10.4333 6.90008 11.6 8.06675 11.6 9.50008C11.6 10.9334 10.4333 12.1001 8.99996 12.1001Z" fill="#23262F"/>
</svg>
