<svg width="20" height="20" viewBox="0 0 20 20" fill="none" xmlns="http://www.w3.org/2000/svg">
<path d="M6.35833 2.97494C6.50781 2.89341 6.66666 3.01884 6.66666 3.18912V14.4665C6.66666 14.6639 6.53157 14.8304 6.35833 14.9249L4.39999 16.0416C3.03333 16.8249 1.90833 16.1749 1.90833 14.5916V6.48328C1.90833 5.95828 2.28333 5.30828 2.74999 5.04161L6.35833 2.97494Z" fill="#FCFCFD"/>
<path d="M12.2219 5.06227C12.3922 5.14662 12.5 5.32026 12.5 5.51033V16.2869C12.5 16.6554 12.115 16.8973 11.783 16.7374L8.40798 15.1113C8.23498 15.028 8.125 14.8529 8.125 14.6609V3.8389C8.125 3.46804 8.51456 3.22625 8.8469 3.39084L12.2219 5.06227Z" fill="#FCFCFD"/>
<path d="M18.3334 5.40831V13.5166C18.3334 14.0416 17.9584 14.6916 17.4917 14.9583L14.707 16.5543C14.3737 16.7453 13.9584 16.5046 13.9584 16.1205V5.32363C13.9584 5.14411 14.0546 4.97838 14.2105 4.88939L15.8417 3.95831C17.2084 3.17497 18.3334 3.82497 18.3334 5.40831Z" fill="#FCFCFD"/>
</svg>
