<svg width="20" height="19" viewBox="0 0 20 19" fill="none" xmlns="http://www.w3.org/2000/svg">
<path fill-rule="evenodd" clip-rule="evenodd" d="M10.0251 11.0825C9.40277 11.0825 8.78231 10.8785 8.26323 10.4705L4.09112 7.13262C3.79065 6.89262 3.74414 6.456 3.98507 6.15877C4.22787 5.86246 4.66694 5.81539 4.96647 6.05446L9.13487 9.38862C9.65859 9.80031 10.3963 9.80031 10.9237 9.38493L15.0502 6.05631C15.3498 5.81354 15.7888 5.8597 16.0326 6.15693C16.2754 6.45323 16.2298 6.88893 15.9312 7.13077L11.7972 10.4649C11.2744 10.8766 10.6493 11.0825 10.0251 11.0825Z" fill="black"/>
<mask id="mask0_3475_1713" style="mask-type:luminance" maskUnits="userSpaceOnUse" x="0" y="0" width="20" height="19">
<path fill-rule="evenodd" clip-rule="evenodd" d="M0 0.5H20V18.5H0V0.5Z" fill="white"/>
</mask>
<g mask="url(#mask0_3475_1713)">
<path fill-rule="evenodd" clip-rule="evenodd" d="M5.43168 17.1154H14.5666C14.5685 17.1135 14.5759 17.1154 14.5815 17.1154C15.6429 17.1154 16.5843 16.7388 17.3062 16.0234C18.1443 15.1954 18.6048 14.0055 18.6048 12.6735V6.33385C18.6048 3.75569 16.9062 1.88462 14.5666 1.88462H5.43354C3.094 1.88462 1.39539 3.75569 1.39539 6.33385V12.6735C1.39539 14.0055 1.85678 15.1954 2.694 16.0234C3.41586 16.7388 4.35819 17.1154 5.41866 17.1154H5.43168ZM5.41584 18.5C3.98048 18.5 2.69862 17.9831 1.70885 17.0046C0.606515 15.9135 0 14.3757 0 12.6735V6.33385C0 3.008 2.33582 0.5 5.43351 0.5H14.5666C17.6643 0.5 20.0001 3.008 20.0001 6.33385V12.6735C20.0001 14.3757 19.3936 15.9135 18.2912 17.0046C17.3024 17.9822 16.0196 18.5 14.5815 18.5H14.5666H5.43351H5.41584Z" fill="black"/>
</g>
</svg>
