<svg width="20" height="20" viewBox="0 0 20 20" fill="none" xmlns="http://www.w3.org/2000/svg">
<path d="M18.8603 6.36985L11.9303 0.829849C10.8603 -0.0301508 9.13026 -0.0301508 8.07026 0.819849L1.14027 6.36985C0.360265 6.98985 -0.139735 8.29985 0.0302651 9.27985L1.36027 17.2398C1.60027 18.6598 2.96027 19.8098 4.40027 19.8098H15.6003C17.0303 19.8098 18.4003 18.6498 18.6403 17.2398L19.9703 9.27985C20.1303 8.29985 19.6303 6.98985 18.8603 6.36985ZM10.0003 13.4998C8.62027 13.4998 7.50027 12.3798 7.50027 10.9998C7.50027 9.61985 8.62027 8.49985 10.0003 8.49985C11.3803 8.49985 12.5003 9.61985 12.5003 10.9998C12.5003 12.3798 11.3803 13.4998 10.0003 13.4998Z" fill="#141416"/>
</svg>
