<svg width="16" height="18" viewBox="0 0 16 18" fill="none" xmlns="http://www.w3.org/2000/svg">
<mask id="mask0_4721_1206" style="mask-type:luminance" maskUnits="userSpaceOnUse" x="0" y="0" width="16" height="15">
<path fill-rule="evenodd" clip-rule="evenodd" d="M0.916687 0.666687H15.0834V14.1147H0.916687V0.666687Z" fill="white"/>
</mask>
<g mask="url(#mask0_4721_1206)">
<path fill-rule="evenodd" clip-rule="evenodd" d="M7.99892 1.82948C5.32212 1.82948 3.45641 3.95196 3.45641 5.85661C3.45641 7.46824 3.01449 8.2132 2.62388 8.87057C2.31063 9.39847 2.06325 9.81553 2.06325 10.7217C2.19115 12.1837 3.14469 12.952 7.99892 12.952C12.8263 12.952 13.8098 12.1496 13.9369 10.6713C13.9346 9.81553 13.6872 9.39847 13.374 8.87057C12.9834 8.2132 12.5414 7.46824 12.5414 5.85661C12.5414 3.95196 10.6757 1.82948 7.99892 1.82948ZM7.99891 14.1147C4.4176 14.1147 1.18093 13.8589 0.916697 10.7713C0.9144 9.49382 1.29964 8.84421 1.6397 8.27211C1.98359 7.69227 2.30756 7.14576 2.30756 5.85661C2.30756 3.35041 4.59452 0.666687 7.99891 0.666687C11.4033 0.666687 13.6903 3.35041 13.6903 5.85661C13.6903 7.14576 14.0142 7.69227 14.3581 8.27211C14.6982 8.84421 15.0834 9.49382 15.0834 10.7217C14.8161 13.8589 11.5802 14.1147 7.99891 14.1147Z" fill="#141416"/>
</g>
<path fill-rule="evenodd" clip-rule="evenodd" d="M7.96154 17.3334H7.96C7.10144 17.3326 6.28882 16.9497 5.67228 16.2543C5.46013 16.0163 5.47927 15.6481 5.71517 15.4342C5.95107 15.2187 6.3141 15.238 6.52625 15.4776C6.92298 15.9249 7.4323 16.1706 7.96077 16.1706H7.96154C8.4923 16.1706 9.00392 15.9249 9.40142 15.4768C9.61433 15.2388 9.97737 15.2194 10.2125 15.4342C10.4484 15.6489 10.4675 16.0171 10.2554 16.2551C9.63654 16.9504 8.8224 17.3334 7.96154 17.3334Z" fill="#141416"/>
</svg>
