<svg width="20" height="20" viewBox="0 0 20 20" fill="none" xmlns="http://www.w3.org/2000/svg">
<path d="M12.5001 18.9583H7.50008C2.97508 18.9583 1.04175 17.025 1.04175 12.5V7.49996C1.04175 2.97496 2.97508 1.04163 7.50008 1.04163H12.5001C17.0251 1.04163 18.9584 2.97496 18.9584 7.49996V12.5C18.9584 12.7 18.9584 12.9083 18.9418 13.0999C18.9168 13.3499 18.7418 13.5666 18.5001 13.6416C18.2584 13.7166 17.9917 13.6333 17.8334 13.4333C17.2417 12.7083 16.3667 12.2916 15.4167 12.2916C14.7084 12.2916 14.0168 12.5333 13.4668 12.975C12.7168 13.5666 12.2917 14.45 12.2917 15.4166C12.2917 16.3583 12.7084 17.2416 13.4334 17.8333C13.6334 17.9916 13.7084 18.2583 13.6417 18.5C13.5667 18.7416 13.3584 18.9166 13.1001 18.9416C12.9084 18.9583 12.7001 18.9583 12.5001 18.9583ZM7.50008 2.29163C3.65841 2.29163 2.29175 3.65829 2.29175 7.49996V12.5C2.29175 16.3416 3.65841 17.7083 7.50008 17.7083H11.6834C11.2667 17.0333 11.0417 16.2416 11.0417 15.4166C11.0417 14.0666 11.6418 12.825 12.6918 12C14.0918 10.8666 16.2167 10.7666 17.7084 11.6833V7.49996C17.7084 3.65829 16.3417 2.29163 12.5001 2.29163H7.50008Z" fill="#2FA2B9"/>
<path d="M17.9001 6.55005H2.1001C1.75843 6.55005 1.4751 6.26672 1.4751 5.92505C1.4751 5.58338 1.75843 5.30005 2.1001 5.30005H17.9001C18.2418 5.30005 18.5251 5.58338 18.5251 5.92505C18.5251 6.26672 18.2501 6.55005 17.9001 6.55005Z" fill="#2FA2B9"/>
<path d="M7.1001 6.43329C6.75843 6.43329 6.4751 6.14996 6.4751 5.80829V1.7583C6.4751 1.41663 6.75843 1.1333 7.1001 1.1333C7.44176 1.1333 7.7251 1.41663 7.7251 1.7583V5.80829C7.7251 6.14996 7.44176 6.43329 7.1001 6.43329Z" fill="#2FA2B9"/>
<path d="M12.8999 6.05833C12.5582 6.05833 12.2749 5.775 12.2749 5.43333V1.7583C12.2749 1.41663 12.5582 1.1333 12.8999 1.1333C13.2416 1.1333 13.5249 1.41663 13.5249 1.7583V5.43333C13.5249 5.78333 13.2499 6.05833 12.8999 6.05833Z" fill="#2FA2B9"/>
<path d="M15.4167 19.7916C14.4001 19.7916 13.4168 19.4416 12.6418 18.8C11.6251 17.975 11.0417 16.7416 11.0417 15.4166C11.0417 14.0666 11.6418 12.825 12.6918 12C13.4584 11.3833 14.4251 11.0416 15.4167 11.0416C16.7417 11.0416 17.9751 11.625 18.8001 12.65C19.4334 13.4166 19.7917 14.4 19.7917 15.4166C19.7917 16.6583 19.2501 17.8583 18.3084 18.7C17.4917 19.4083 16.4667 19.7916 15.4167 19.7916ZM15.4167 12.2916C14.7084 12.2916 14.0168 12.5333 13.4668 12.975C12.7168 13.5666 12.2917 14.45 12.2917 15.4166C12.2917 16.3583 12.7084 17.2416 13.4334 17.8333C14.5667 18.775 16.3251 18.7666 17.4834 17.7583C18.1501 17.1583 18.5417 16.3 18.5417 15.4166C18.5417 14.6916 18.2917 13.9916 17.8334 13.4416C17.2417 12.7083 16.3584 12.2916 15.4167 12.2916Z" fill="#2FA2B9"/>
<path d="M14.4832 16.9833C14.2749 16.9833 14.0665 16.875 13.9499 16.6833C13.7749 16.3833 13.8666 16 14.1666 15.825L15.0332 15.3083V14.2583C15.0332 13.9166 15.3166 13.6333 15.6582 13.6333C15.9999 13.6333 16.2832 13.9166 16.2832 14.2583V15.6666C16.2832 15.8833 16.1666 16.0916 15.9832 16.2L14.8082 16.9C14.6999 16.95 14.5916 16.9833 14.4832 16.9833Z" fill="#2FA2B9"/>
</svg>
