<svg width="16" height="20" viewBox="0 0 16 20" fill="none" xmlns="http://www.w3.org/2000/svg">
<mask id="mask0_3475_2115" style="mask-type:luminance" maskUnits="userSpaceOnUse" x="0" y="12" width="16" height="8">
<path fill-rule="evenodd" clip-rule="evenodd" d="M0 12.5781H16V20.0004H0V12.5781Z" fill="white"/>
</mask>
<g mask="url(#mask0_3475_2115)">
<path fill-rule="evenodd" clip-rule="evenodd" d="M8.00104 14.0879C3.69697 14.0879 1.51514 14.8247 1.51514 16.2792C1.51514 17.7467 3.69697 18.4906 8.00104 18.4906C12.3041 18.4906 14.4849 17.7538 14.4849 16.2993C14.4849 14.8318 12.3041 14.0879 8.00104 14.0879ZM8.00106 20.0004C6.02226 20.0004 0 20.0004 0 16.2792C0 12.9616 4.5667 12.5781 8.00106 12.5781C9.97986 12.5781 16.0001 12.5781 16.0001 16.2993C16.0001 19.6169 11.4344 20.0004 8.00106 20.0004Z" fill="black"/>
</g>
<mask id="mask1_3475_2115" style="mask-type:luminance" maskUnits="userSpaceOnUse" x="2" y="0" width="12" height="11">
<path fill-rule="evenodd" clip-rule="evenodd" d="M2.63672 0H13.3641V10.6881H2.63672V0Z" fill="white"/>
</mask>
<g mask="url(#mask1_3475_2115)">
<path fill-rule="evenodd" clip-rule="evenodd" d="M8.00149 1.43735C5.83885 1.43735 4.07924 3.18974 4.07924 5.34475C4.07217 7.49271 5.81865 9.24409 7.9722 9.25215L8.00149 9.97082V9.25215C10.1631 9.25215 11.9217 7.49875 11.9217 5.34475C11.9217 3.18974 10.1631 1.43735 8.00149 1.43735ZM8.00143 10.6885H7.96911C5.01757 10.6794 2.62665 8.28082 2.63675 5.34172C2.63675 2.39758 5.04283 0 8.00143 0C10.959 0 13.3641 2.39758 13.3641 5.34474C13.3641 8.2919 10.959 10.6885 8.00143 10.6885Z" fill="black"/>
</g>
</svg>
