<svg width="20" height="21" viewBox="0 0 20 21" fill="none" xmlns="http://www.w3.org/2000/svg">
<mask id="mask0_4041_10646" style="mask-type:luminance" maskUnits="userSpaceOnUse" x="2" y="2" width="16" height="16">
<path fill-rule="evenodd" clip-rule="evenodd" d="M2 2.5H17.3784V17.5389H2V2.5Z" fill="white"/>
</mask>
<g mask="url(#mask0_4041_10646)">
<path fill-rule="evenodd" clip-rule="evenodd" d="M9.68966 3.65816C6.1026 3.65816 3.18433 6.51121 3.18433 10.019C3.18433 13.5268 6.1026 16.3807 9.68966 16.3807C13.2759 16.3807 16.1942 13.5268 16.1942 10.019C16.1942 6.51121 13.2759 3.65816 9.68966 3.65816ZM9.6897 17.5389C5.44966 17.5389 2 14.1655 2 10.0191C2 5.8727 5.44966 2.5 9.6897 2.5C13.9297 2.5 17.3786 5.8727 17.3786 10.0191C17.3786 14.1655 13.9297 17.5389 9.6897 17.5389Z" fill="#141416"/>
</g>
<mask id="mask1_4041_10646" style="mask-type:luminance" maskUnits="userSpaceOnUse" x="14" y="14" width="4" height="5">
<path fill-rule="evenodd" clip-rule="evenodd" d="M14.0332 14.6279H18.0001V18.5H14.0332V14.6279Z" fill="white"/>
</mask>
<g mask="url(#mask1_4041_10646)">
<path fill-rule="evenodd" clip-rule="evenodd" d="M17.4081 18.5C17.2572 18.5 17.1056 18.4436 16.9896 18.3309L14.2071 15.6176C13.9758 15.3914 13.975 15.0246 14.2063 14.7984C14.4369 14.5706 14.8119 14.5721 15.0441 14.7968L17.8265 17.5109C18.0579 17.7371 18.0587 18.1031 17.8273 18.3294C17.712 18.4436 17.5597 18.5 17.4081 18.5Z" fill="#141416"/>
</g>
</svg>
