<svg width="16" height="18" viewBox="0 0 16 18" fill="none" xmlns="http://www.w3.org/2000/svg">
<path fill-rule="evenodd" clip-rule="evenodd" d="M11.0004 13.2013H5.03828C4.69641 13.2013 4.41895 12.9201 4.41895 12.5735C4.41895 12.2269 4.69641 11.9457 5.03828 11.9457H11.0004C11.3423 11.9457 11.6197 12.2269 11.6197 12.5735C11.6197 12.9201 11.3423 13.2013 11.0004 13.2013Z" fill="#2FA2B9"/>
<path fill-rule="evenodd" clip-rule="evenodd" d="M11.0004 9.6967H5.03828C4.69641 9.6967 4.41895 9.41544 4.41895 9.06887C4.41895 8.72231 4.69641 8.44104 5.03828 8.44104H11.0004C11.3423 8.44104 11.6197 8.72231 11.6197 9.06887C11.6197 9.41544 11.3423 9.6967 11.0004 9.6967Z" fill="#2FA2B9"/>
<path fill-rule="evenodd" clip-rule="evenodd" d="M7.31305 6.20037H5.03803C4.69616 6.20037 4.4187 5.9191 4.4187 5.57253C4.4187 5.22597 4.69616 4.9447 5.03803 4.9447H7.31305C7.65492 4.9447 7.93238 5.22597 7.93238 5.57253C7.93238 5.9191 7.65492 6.20037 7.31305 6.20037Z" fill="#2FA2B9"/>
<mask id="mask0_4868_3093" style="mask-type:luminance" maskUnits="userSpaceOnUse" x="0" y="0" width="16" height="18">
<path fill-rule="evenodd" clip-rule="evenodd" d="M0.5 0.66687H15.5V17.3335H0.5V0.66687Z" fill="white"/>
</mask>
<g mask="url(#mask0_4868_3093)">
<path fill-rule="evenodd" clip-rule="evenodd" d="M11.1597 1.92241L4.81031 1.92576C2.8879 1.93748 1.73841 3.14292 1.73841 5.15114V12.8492C1.73841 14.8708 2.89863 16.0779 4.84003 16.0779L11.1894 16.0754C13.1118 16.0637 14.2613 14.8566 14.2613 12.8492V5.15114C14.2613 3.12952 13.1019 1.92241 11.1597 1.92241ZM4.84087 17.3336C2.24462 17.3336 0.499756 15.5313 0.499756 12.8492V5.15114C0.499756 2.44477 2.19012 0.686002 4.80619 0.670096L11.1589 0.666748H11.1597C13.756 0.666748 15.5 2.46904 15.5 5.15114V12.8492C15.5 15.5547 13.8096 17.3143 11.1936 17.3311L4.84087 17.3336Z" fill="#2FA2B9"/>
</g>
</svg>
