<svg width="18" height="18" viewBox="0 0 18 18" fill="none" xmlns="http://www.w3.org/2000/svg">
<path d="M15.07 5.50996L6.51002 1.22996C0.76002 -1.65004 -1.59998 0.709964 1.28002 6.45996L2.15002 8.19996C2.40002 8.70996 2.40002 9.29996 2.15002 9.80996L1.28002 11.54C-1.59998 17.29 0.75002 19.65 6.51002 16.77L15.07 12.49C18.91 10.57 18.91 7.42996 15.07 5.50996ZM11.84 9.74996H6.44002C6.03002 9.74996 5.69002 9.40996 5.69002 8.99996C5.69002 8.58996 6.03002 8.24996 6.44002 8.24996H11.84C12.25 8.24996 12.59 8.58996 12.59 8.99996C12.59 9.40996 12.25 9.74996 11.84 9.74996Z" fill="#F4F5F6"/>
</svg>
