<svg width="16" height="16" viewBox="0 0 16 16" fill="none" xmlns="http://www.w3.org/2000/svg">
<mask id="mask0_4868_3486" style="mask-type:luminance" maskUnits="userSpaceOnUse" x="0" y="0" width="16" height="17">
<path fill-rule="evenodd" clip-rule="evenodd" d="M0.5 0.000488281H15.5V16.0005H0.5V0.000488281Z" fill="white"/>
</mask>
<g mask="url(#mask0_4868_3486)">
<path fill-rule="evenodd" clip-rule="evenodd" d="M4.54646 11.9227C4.72458 11.9227 4.9027 11.9451 5.07693 11.9914C5.60273 12.1319 6.05931 12.481 6.32999 12.9497C6.50577 13.2439 6.603 13.5875 6.60611 13.938C6.60611 14.4399 7.01213 14.8422 7.51148 14.8422H8.48608C8.98311 14.8422 9.38912 14.4423 9.39146 13.9488C9.38835 13.4037 9.60302 12.8856 9.99582 12.4956C10.3832 12.1111 10.9245 11.8802 11.4659 11.8957C11.8206 11.9042 12.162 11.9991 12.463 12.169C12.8963 12.4153 13.4493 12.2686 13.6998 11.8439L14.2162 10.9891C14.3313 10.7922 14.3648 10.5452 14.3033 10.3174C14.2427 10.0896 14.0902 9.8919 13.8849 9.77531C13.4042 9.50042 13.0612 9.05719 12.9188 8.52595C12.7781 8.00473 12.8551 7.43565 13.1296 6.96695C13.3085 6.65808 13.5706 6.39786 13.8849 6.21872C14.3065 5.97395 14.4542 5.42648 14.2092 5.00025C14.1991 4.98326 14.1898 4.9655 14.182 4.94697L13.7262 4.16245C13.4781 3.7339 12.9258 3.58642 12.4926 3.83119C12.0244 4.10608 11.4674 4.18484 10.9323 4.04508C10.3979 3.90764 9.94993 3.57174 9.67069 3.09764C9.4918 2.80113 9.39457 2.45597 9.39146 2.10463C9.39846 1.84055 9.30512 1.6035 9.13556 1.42976C8.96677 1.2568 8.72954 1.15873 8.48608 1.15873H7.51148C7.27036 1.15873 7.0448 1.25217 6.87446 1.4205C6.70489 1.5896 6.61233 1.8143 6.61389 2.05367C6.59755 3.18257 5.66807 4.09141 4.54257 4.09141C4.18167 4.08755 3.83399 3.99103 3.5322 3.81189C3.10829 3.57252 2.55448 3.72 2.30636 4.14855L1.77978 5.00797C1.53866 5.42339 1.68645 5.9724 2.1158 6.22026C2.75283 6.58627 3.15029 7.26886 3.15029 8.00087C3.15029 8.73289 2.75283 9.41471 2.11424 9.78148C1.68722 10.027 1.53944 10.573 1.78678 10.9976L2.27758 11.8378C2.39892 12.0547 2.59726 12.2115 2.82672 12.2756C3.0554 12.3389 3.30741 12.3119 3.51742 12.196C3.82621 12.0161 4.18556 11.9227 4.54646 11.9227ZM8.48605 16.0005H7.51145C6.36884 16.0005 5.43936 15.0785 5.43936 13.9442C5.4378 13.8045 5.39736 13.6593 5.32191 13.5334C5.19979 13.3219 5.00223 13.1705 4.77433 13.1103C4.54799 13.0501 4.29986 13.0833 4.09608 13.2006C3.60761 13.4709 3.03281 13.5365 2.50701 13.3898C1.98198 13.2423 1.52852 12.884 1.26251 12.4092L0.776372 11.5775C0.207791 10.5984 0.54614 9.34367 1.53085 8.77844C1.81009 8.61861 1.98354 8.32055 1.98354 8.00087C1.98354 7.6812 1.81009 7.38237 1.53085 7.22253C0.545362 6.65422 0.207791 5.39637 0.775594 4.41726L1.30295 3.55785C1.86375 2.58955 3.13159 2.24826 4.12019 2.81194C4.25475 2.89147 4.40098 2.93162 4.54954 2.93317C5.03412 2.93317 5.43936 2.53627 5.44714 2.04827C5.44403 1.51007 5.65792 0.993491 6.04761 0.603548C6.43885 0.214378 6.95843 0.000488281 7.51145 0.000488281H8.48605C9.04296 0.000488281 9.58432 0.227504 9.97245 0.62208C10.3598 1.01897 10.5737 1.56335 10.5574 2.11544C10.5589 2.23976 10.6001 2.38338 10.6748 2.50925C10.7985 2.71773 10.9937 2.86444 11.2255 2.92467C11.4573 2.98181 11.7 2.95093 11.9061 2.8297C12.9017 2.26524 14.1687 2.60345 14.7373 3.5841L15.2219 4.41726C15.2344 4.43966 15.2452 4.46128 15.2546 4.48367C15.7695 5.44965 15.4257 6.6658 14.469 7.22099C14.3298 7.30052 14.217 7.41171 14.1392 7.54607C14.0186 7.75378 13.9852 8.00087 14.0459 8.22789C14.1081 8.45954 14.2566 8.65181 14.4659 8.77072C14.938 9.04021 15.2904 9.49424 15.4311 10.0185C15.5719 10.5421 15.4949 11.1104 15.2204 11.5791L14.7039 12.4331C14.1353 13.4029 12.8682 13.7388 11.8828 13.1736C11.7513 13.0987 11.5996 13.0578 11.4487 13.0539H11.4441C11.2193 13.0539 10.9883 13.1489 10.8203 13.3149C10.6499 13.484 10.5566 13.7095 10.5581 13.9488C10.5527 15.0832 9.62321 16.0005 8.48605 16.0005Z" fill="#2FA2B9"/>
</g>
<path fill-rule="evenodd" clip-rule="evenodd" d="M8.00206 6.54387C7.19314 6.54387 6.53511 7.19789 6.53511 8.00094C6.53511 8.80399 7.19314 9.45647 8.00206 9.45647C8.81099 9.45647 9.46902 8.80399 9.46902 8.00094C9.46902 7.19789 8.81099 6.54387 8.00206 6.54387ZM8.00208 10.6147C6.54991 10.6147 5.36841 9.44257 5.36841 8.00094C5.36841 6.55931 6.54991 5.38562 8.00208 5.38562C9.45426 5.38562 10.6358 6.55931 10.6358 8.00094C10.6358 9.44257 9.45426 10.6147 8.00208 10.6147Z" fill="#2FA2B9"/>
</svg>
