<svg width="14" height="19" viewBox="0 0 14 19" fill="none" xmlns="http://www.w3.org/2000/svg">
<path d="M6.78016 3.34478L4.15516 0.719778C3.86266 0.426903 3.38716 0.426903 3.09466 0.719778L0.469656 3.34478C0.176781 3.63765 0.176781 4.1124 0.469656 4.40528C0.762156 4.69815 1.23766 4.69815 1.53016 4.40528L2.87491 3.06053V17.75C2.87491 18.164 3.21091 18.5 3.62491 18.5C4.03891 18.5 4.37491 18.164 4.37491 17.75V3.06053L5.71966 4.40528C5.86591 4.5519 6.05791 4.62503 6.24991 4.62503C6.44191 4.62503 6.63391 4.5519 6.78016 4.40528C7.07303 4.1124 7.07303 3.63765 6.78016 3.34478Z" fill="#353945"/>
<path d="M13.5302 14.5947C13.2373 14.3019 12.7625 14.3019 12.4697 14.5947L11.1249 15.9395V1.25C11.1249 0.836 10.7889 0.5 10.3749 0.5C9.96091 0.5 9.62491 0.836 9.62491 1.25V15.9395L8.28016 14.5947C7.98728 14.3019 7.51216 14.3019 7.21966 14.5947C6.92678 14.8876 6.92678 15.3624 7.21966 15.6553L9.84466 18.2803C9.99128 18.4269 10.1829 18.5 10.3749 18.5C10.5669 18.5 10.7585 18.4269 10.9052 18.2803L13.5302 15.6553C13.823 15.3624 13.823 14.8876 13.5302 14.5947Z" fill="#353945"/>
</svg>
