<svg width="18" height="16" viewBox="0 0 18 16" fill="none" xmlns="http://www.w3.org/2000/svg">
<path d="M16.6249 3.14165C16.2832 2.95831 15.5666 2.76665 14.5916 3.44998L13.3666 4.31665C13.2749 1.72498 12.1499 0.708313 9.41658 0.708313H4.41658C1.56659 0.708313 0.458252 1.81665 0.458252 4.66665V11.3333C0.458252 13.25 1.49992 15.2916 4.41658 15.2916H9.41658C12.1499 15.2916 13.2749 14.275 13.3666 11.6833L14.5916 12.55C15.1082 12.9166 15.5582 13.0333 15.9166 13.0333C16.2249 13.0333 16.4666 12.9416 16.6249 12.8583C16.9666 12.6833 17.5416 12.2083 17.5416 11.0166V4.98331C17.5416 3.79165 16.9666 3.31665 16.6249 3.14165ZM8.16658 7.48331C7.30825 7.48331 6.59992 6.78331 6.59992 5.91665C6.59992 5.04998 7.30825 4.34998 8.16658 4.34998C9.02492 4.34998 9.73325 5.04998 9.73325 5.91665C9.73325 6.78331 9.02492 7.48331 8.16658 7.48331Z" fill="#777E91"/>
</svg>
