<svg width="17" height="14" viewBox="0 0 17 14" fill="none" xmlns="http://www.w3.org/2000/svg">
<path fill-rule="evenodd" clip-rule="evenodd" d="M12.602 2.5172C12.634 2.57159 12.69 2.61043 12.762 2.61043C14.682 2.61043 16.25 4.13319 16.25 5.99778V10.6127C16.25 12.4772 14.682 14 12.762 14H3.738C1.81 14 0.25 12.4772 0.25 10.6127V5.99778C0.25 4.13319 1.81 2.61043 3.738 2.61043C3.802 2.61043 3.866 2.57936 3.89 2.5172L3.938 2.42397C3.96558 2.36754 3.99389 2.30957 4.02262 2.25073C4.22728 1.83162 4.4537 1.36795 4.594 1.09545C4.962 0.396226 5.586 0.00776915 6.362 0H10.13C10.906 0.00776915 11.538 0.396226 11.906 1.09545C12.032 1.3402 12.224 1.73445 12.409 2.11442C12.4472 2.19279 12.4851 2.27056 12.522 2.34628L12.602 2.5172ZM12.0181 5.50057C12.0181 5.88902 12.3381 6.19979 12.7381 6.19979C13.1381 6.19979 13.4661 5.88902 13.4661 5.50057C13.4661 5.11211 13.1381 4.79357 12.7381 4.79357C12.3381 4.79357 12.0181 5.11211 12.0181 5.50057ZM6.86602 6.70477C7.24202 6.33962 7.73002 6.14539 8.25002 6.14539C8.77002 6.14539 9.25802 6.33962 9.62602 6.697C9.99402 7.05438 10.194 7.5283 10.194 8.0333C10.186 9.07436 9.32202 9.9212 8.25002 9.9212C7.73002 9.9212 7.24202 9.72697 6.87402 9.36959C6.50602 9.01221 6.30602 8.53829 6.30602 8.0333V8.02553C6.29802 7.53607 6.49802 7.06215 6.86602 6.70477ZM10.4661 10.1931C9.8981 10.7447 9.1141 11.0866 8.2501 11.0866C7.4101 11.0866 6.6261 10.7681 6.0261 10.1931C5.4341 9.61045 5.1061 8.84907 5.1061 8.03331C5.0981 7.22532 5.4261 6.46394 6.0181 5.88126C6.6181 5.29857 7.4101 4.98004 8.2501 4.98004C9.0901 4.98004 9.8821 5.29857 10.4741 5.87349C11.0661 6.45617 11.3941 7.22532 11.3941 8.03331C11.3861 8.88015 11.0341 9.64152 10.4661 10.1931Z" fill="#777E91"/>
</svg>
