<svg width="48" height="48" viewBox="0 0 48 48" fill="none" xmlns="http://www.w3.org/2000/svg">
<rect width="48" height="48" rx="24" fill="#F8F8F9"/>
<g clip-path="url(#clip0_4040_10335)">
<path d="M18.3435 32.812L18.7358 33.0083C20.3707 33.99 22.2018 34.4481 24.0329 34.4481C29.7878 34.4481 34.4963 29.736 34.4963 23.9767C34.4963 21.2279 33.3846 18.5446 31.4227 16.5812C29.4608 14.6178 26.8449 13.5052 24.0329 13.5052C18.2781 13.5052 13.5696 18.2174 13.635 24.0421C13.635 26.0055 14.2235 27.9035 15.2045 29.5397L15.466 29.9323L14.4197 33.7937L18.3435 32.812Z" fill="#00E676"/>
<path d="M32.5344 15.5341C30.3109 13.2435 27.2373 12 24.0983 12C17.4279 12 12.0654 17.4321 12.1308 24.0422C12.1308 26.1365 12.7194 28.1653 13.7003 29.9978L12 36.2152L18.3434 34.5791C20.1091 35.5608 22.071 36.0189 24.0329 36.0189C30.6379 36.0189 36.0003 30.5868 36.0003 23.9767C36.0003 20.7698 34.7578 17.7593 32.5344 15.5341ZM24.0983 33.99C22.3326 33.99 20.5669 33.5319 19.0628 32.6157L18.6704 32.4193L14.8774 33.401L15.8584 29.6706L15.5968 29.2779C12.7194 24.6312 14.0927 18.4792 18.8012 15.5996C23.5097 12.7199 29.5915 14.0943 32.469 18.8064C35.3464 23.5186 33.9731 29.6051 29.2646 32.4848C27.7604 33.4665 25.9294 33.99 24.0983 33.99ZM29.8531 26.7255L29.1338 26.3982C29.1338 26.3982 28.0874 25.9401 27.4335 25.6129C27.3681 25.6129 27.3027 25.5474 27.2373 25.5474C27.0411 25.5474 26.9103 25.6129 26.7795 25.6783C26.7795 25.6783 26.7141 25.7438 25.7986 26.7909C25.7332 26.9218 25.6024 26.9873 25.4716 26.9873H25.4062C25.3408 26.9873 25.21 26.9218 25.1446 26.8564L24.8176 26.7255C24.0983 26.3982 23.4443 26.0056 22.9211 25.482C22.7903 25.3511 22.5942 25.2202 22.4634 25.0893C22.0056 24.6312 21.5478 24.1076 21.2208 23.5186L21.1554 23.3877C21.09 23.3223 21.09 23.2568 21.0247 23.1259C21.0247 22.995 21.0247 22.8641 21.09 22.7987C21.09 22.7987 21.3516 22.4714 21.5478 22.2751C21.6786 22.1442 21.744 21.9479 21.8748 21.817C22.0056 21.6206 22.071 21.3589 22.0056 21.1625C21.9402 20.8353 21.1554 19.0682 20.9593 18.6755C20.8285 18.4792 20.6977 18.4138 20.5015 18.3483H20.3053C20.1745 18.3483 19.9783 18.3483 19.7821 18.3483C19.6513 18.3483 19.5205 18.4138 19.3898 18.4138L19.3244 18.4792C19.1936 18.5447 19.0628 18.6755 18.932 18.741C18.8012 18.8719 18.7358 19.0028 18.605 19.1337C18.1472 19.7227 17.8856 20.4426 17.8856 21.1625C17.8856 21.6861 18.0164 22.2097 18.2126 22.6678L18.278 22.8641C18.8666 24.1076 19.6513 25.2202 20.6977 26.2019L20.9593 26.4637C21.1554 26.66 21.3516 26.7909 21.4824 26.9873C22.8557 28.1653 24.4252 29.0161 26.1909 29.4742C26.3871 29.5397 26.6487 29.5397 26.8449 29.6051C27.0411 29.6051 27.3027 29.6051 27.4989 29.6051C27.8258 29.6051 28.2182 29.4742 28.4798 29.3433C28.676 29.2124 28.8068 29.2124 28.9376 29.0815L29.0684 28.9507C29.1992 28.8198 29.33 28.7543 29.4607 28.6234C29.5915 28.4925 29.7223 28.3616 29.7877 28.2307C29.9185 27.969 29.9839 27.6417 30.0493 27.3145C30.0493 27.1836 30.0493 26.9873 30.0493 26.8564C30.0493 26.8564 29.9839 26.7909 29.8531 26.7255Z" fill="white"/>
</g>
<defs>
<clipPath id="clip0_4040_10335">
<rect width="24" height="24.3" fill="white" transform="translate(12 12)"/>
</clipPath>
</defs>
</svg>
